<svg width="16" height="16" viewBox="0 0 16 16" fill="none" xmlns="http://www.w3.org/2000/svg">
<g id="fluent:arrow-enter-16-filled">
<path id="Vector" d="M6.75 1.5C6.55109 1.5 6.36032 1.57902 6.21967 1.71967C6.07902 1.86032 6 2.05109 6 2.25C6 2.44891 6.07902 2.63968 6.21967 2.78033C6.36032 2.92098 6.55109 3 6.75 3H11.5C11.8978 3 12.2794 3.15804 12.5607 3.43934C12.842 3.72064 13 4.10218 13 4.5V11.5C13 11.8978 12.842 12.2794 12.5607 12.5607C12.2794 12.842 11.8978 13 11.5 13H6.75C6.55109 13 6.36032 13.079 6.21967 13.2197C6.07902 13.3603 6 13.5511 6 13.75C6 13.9489 6.07902 14.1397 6.21967 14.2803C6.36032 14.421 6.55109 14.5 6.75 14.5H11.5C12.2956 14.5 13.0587 14.1839 13.6213 13.6213C14.1839 13.0587 14.5 12.2956 14.5 11.5V4.5C14.5 3.70435 14.1839 2.94129 13.6213 2.37868C13.0587 1.81607 12.2956 1.5 11.5 1.5H6.75ZM9.78 7.47L7.28 4.97C7.13783 4.83752 6.94978 4.7654 6.75548 4.76883C6.56118 4.77225 6.37579 4.85097 6.23838 4.98838C6.10097 5.12579 6.02225 5.31118 6.01883 5.50548C6.0154 5.69978 6.08752 5.88783 6.22 6.03L7.44 7.25H1.75C1.55109 7.25 1.36032 7.32902 1.21967 7.46967C1.07902 7.61032 1 7.80109 1 8C1 8.19891 1.07902 8.38968 1.21967 8.53033C1.36032 8.67098 1.55109 8.75 1.75 8.75H7.44L6.22 9.97C6.14631 10.0387 6.08721 10.1215 6.04622 10.2135C6.00523 10.3055 5.98319 10.4048 5.98141 10.5055C5.97963 10.6062 5.99816 10.7062 6.03588 10.7996C6.0736 10.893 6.12974 10.9778 6.20096 11.049C6.27218 11.1203 6.35701 11.1764 6.4504 11.2141C6.54379 11.2518 6.64382 11.2704 6.74452 11.2686C6.84523 11.2668 6.94454 11.2448 7.03654 11.2038C7.12854 11.1628 7.21134 11.1037 7.28 11.03L9.78 8.53C9.92045 8.38937 9.99934 8.19875 9.99934 8C9.99934 7.80125 9.92045 7.61063 9.78 7.47Z" fill="white"/>
</g>
</svg>
